<svg xmlns="http://www.w3.org/2000/svg" viewBox="0 0 512 512"><path d="M497.641 255.018h-24.712v-42.701c0-6.208-5.032-11.24-11.24-11.24h-66.642c-6.372-29.816-22.278-56.961-45.447-77.241a142.021 142.021 0 0 0-82.713-34.73V75.867h68.143c6.208 0 11.24-5.032 11.24-11.24V11.24c0-6.208-5.032-11.24-11.24-11.24h-79.383c-6.208 0-11.24 5.032-11.24 11.24v77.923a142.016 142.016 0 0 0-82.007 34.674c-23.169 20.28-39.076 47.424-45.447 77.241H50.312c-6.208 0-11.24 5.032-11.24 11.24v42.701H14.36c-6.208 0-11.24 5.032-11.24 11.24V500.76c0 6.208 5.032 11.24 11.24 11.24h483.28c6.208 0 11.24-5.032 11.24-11.24V266.258c0-6.208-5.031-11.24-11.239-11.24zM266.888 38.964V22.479h56.904v30.909h-56.904V38.964zm-10.887 72.197c54.844 0 102.574 37.841 115.961 89.917H140.039c13.389-52.076 61.119-89.917 115.962-89.917zM61.552 223.556h388.899v31.462H61.552v-31.462zm219.857 265.965h-50.816v-84.252h50.816v84.252zm204.992 0H351.538V346.043c0-6.208-5.032-11.24-11.24-11.24s-11.24 5.032-11.24 11.24v143.478h-25.17V394.03c0-6.208-5.032-11.24-11.24-11.24h-73.296c-6.208 0-11.24 5.032-11.24 11.24v95.491h-25.17V346.043c0-6.208-5.032-11.24-11.24-11.24s-11.24 5.032-11.24 11.24v143.478H25.6V277.497h460.802v212.024z"/><path d="M351.324 306.759a11.427 11.427 0 0 0-.652-2.102 11.018 11.018 0 0 0-1.034-1.944 10.784 10.784 0 0 0-1.394-1.708 10.784 10.784 0 0 0-1.708-1.394 11.088 11.088 0 0 0-1.944-1.034 11.32 11.32 0 0 0-2.102-.641 11.075 11.075 0 0 0-4.383 0c-.719.146-1.427.36-2.102.641-.686.281-1.337.629-1.944 1.034-.618.405-1.191.877-1.708 1.394s-.989 1.09-1.394 1.708a11.088 11.088 0 0 0-1.034 1.944 10.545 10.545 0 0 0-.641 2.102c-.146.719-.225 1.461-.225 2.192s.079 1.472.225 2.203c.135.708.36 1.416.641 2.102.281.674.629 1.326 1.034 1.933.405.618.877 1.191 1.394 1.708s1.09.989 1.708 1.405c.607.405 1.259.753 1.944 1.034a11.066 11.066 0 0 0 4.294.855c.731 0 1.472-.067 2.192-.214a11.42 11.42 0 0 0 4.046-1.675 11.495 11.495 0 0 0 1.708-1.405c.517-.517.989-1.09 1.394-1.708.405-.607.753-1.259 1.034-1.933.281-.686.506-1.394.652-2.102.146-.731.214-1.472.214-2.203a11.142 11.142 0 0 0-.215-2.192zm-168.605 0a10.611 10.611 0 0 0-.641-2.102 11.018 11.018 0 0 0-1.034-1.944c-.405-.618-.877-1.191-1.394-1.708s-1.09-.989-1.708-1.394a11.392 11.392 0 0 0-1.933-1.034 11.738 11.738 0 0 0-2.113-.641 11.074 11.074 0 0 0-4.383 0c-.719.146-1.427.36-2.102.641-.686.281-1.337.629-1.944 1.034-.618.405-1.191.877-1.708 1.394s-.989 1.09-1.394 1.708a11.088 11.088 0 0 0-1.034 1.944 10.545 10.545 0 0 0-.641 2.102 11.078 11.078 0 0 0-.225 2.192c0 2.967 1.203 5.856 3.293 7.946a11.088 11.088 0 0 0 3.652 2.439 11.066 11.066 0 0 0 4.294.855c.731 0 1.472-.067 2.192-.214s1.427-.36 2.113-.641a11.392 11.392 0 0 0 1.933-1.034 11.495 11.495 0 0 0 1.708-1.405 11.303 11.303 0 0 0 3.293-7.946 11.003 11.003 0 0 0-.224-2.192zm-53.861-11.841H65.351c-6.208 0-11.24 5.032-11.24 11.24v48.33c0 6.208 5.032 11.24 11.24 11.24h63.507c6.208 0 11.24-5.032 11.24-11.24v-48.33c-.001-6.208-5.032-11.24-11.24-11.24zm-11.24 48.33H76.59v-25.851h41.028v25.851zm11.24 51.926H65.351c-6.208 0-11.24 5.032-11.24 11.24v48.33c0 6.208 5.032 11.24 11.24 11.24h63.507c6.208 0 11.24-5.032 11.24-11.24v-48.33c-.001-6.208-5.032-11.24-11.24-11.24zm-11.24 48.33H76.59v-25.851h41.028v25.851zm170.137-148.586h-63.508c-6.208 0-11.24 5.032-11.24 11.24v48.33c0 6.208 5.032 11.24 11.24 11.24h63.508c6.208 0 11.24-5.032 11.24-11.24v-48.33c0-6.208-5.032-11.24-11.24-11.24zm-11.239 48.33h-41.029v-25.851h41.029v25.851zm170.134-48.33h-63.507c-6.208 0-11.24 5.032-11.24 11.24v48.33c0 6.208 5.032 11.24 11.24 11.24h63.507c6.208 0 11.24-5.032 11.24-11.24v-48.33c0-6.208-5.032-11.24-11.24-11.24zm-11.239 48.33h-41.028v-25.851h41.028v25.851zm11.239 51.926h-63.507c-6.208 0-11.24 5.032-11.24 11.24v48.33c0 6.208 5.032 11.24 11.24 11.24h63.507c6.208 0 11.24-5.032 11.24-11.24v-48.33c0-6.208-5.032-11.24-11.24-11.24zm-11.239 48.33h-41.028v-25.851h41.028v25.851z"/></svg>