<svg xmlns="http://www.w3.org/2000/svg" viewBox="0 0 512 512"><path d="M341.333 281.6c-28.237 0-51.2 22.963-51.2 51.2 0 28.237 22.963 51.2 51.2 51.2 28.237 0 51.2-22.963 51.2-51.2 0-28.237-22.963-51.2-51.2-51.2zm0 85.333c-18.825 0-34.133-15.309-34.133-34.133 0-18.825 15.309-34.133 34.133-34.133 18.825 0 34.133 15.309 34.133 34.133.001 18.825-15.308 34.133-34.133 34.133z"/><path d="M358.4 366.933v35.26l-12.339-8.226a8.495 8.495 0 0 0-9.464 0l-12.331 8.226v-35.26H307.2v51.2a8.535 8.535 0 1 0 13.269 7.099l20.864-13.909 20.864 13.909a8.544 8.544 0 0 0 8.764.427 8.538 8.538 0 0 0 4.506-7.526v-51.2H358.4zm-162.133-281.6H307.2V102.4H196.267zm-76.8 51.2h273.067V153.6H119.467zm0 51.2H307.2V204.8H119.467zm221.866 0h51.2V204.8h-51.2zm-221.866 51.2h273.067V256H119.467zm0 51.2h102.4V307.2h-102.4zm0 42.667h42.667v17.067h-42.667zm76.8 0h25.6v17.067h-25.6zM469.333 0c-23.526 0-42.667 19.14-42.667 42.667v17.067a8.53 8.53 0 0 0 8.533 8.533h68.267a8.53 8.53 0 0 0 8.533-8.533V42.667C512 19.14 492.86 0 469.333 0zm25.6 51.2h-51.2v-8.533c0-14.114 11.486-25.6 25.6-25.6s25.6 11.486 25.6 25.6V51.2z"/><path d="M469.333 0h-358.4C87.407 0 68.267 19.14 68.267 42.667v409.6h17.067v-409.6c0-14.114 11.486-25.6 25.6-25.6h324.284a42.443 42.443 0 0 0-8.55 25.6v426.667c0 14.114-11.486 25.6-25.6 25.6H76.8V512h324.267c23.526 0 42.667-19.14 42.667-42.667V42.667c0-14.114 11.486-25.6 25.6-25.6 4.719 0 8.533-3.823 8.533-8.533S474.052 0 469.333 0z"/><path d="M401.067 494.933c-14.114 0-25.6-11.486-25.6-25.6v-17.067a8.525 8.525 0 0 0-8.533-8.533H8.533A8.53 8.53 0 0 0 0 452.266v17.067C0 492.86 19.14 512 42.667 512h358.4a8.525 8.525 0 0 0 8.533-8.533 8.526 8.526 0 0 0-8.533-8.534zm-358.4 0c-14.114 0-25.6-11.486-25.6-25.6V460.8H358.4v8.533c0 9.6 3.183 18.466 8.55 25.6H42.667z"/></svg>