<svg xmlns="http://www.w3.org/2000/svg" viewBox="0 0 496 496"><path d="M270.128 98.112L248 92.488l-22.128 5.624-1.72-23.672-11.624-19.848 20.592-8.92L248 27.28l14.872 18.384 20.592 8.92-11.624 19.848-1.712 23.68zm80 0L328 92.488l-22.128 5.624-1.72-23.672-11.624-19.848 20.592-8.92L328 27.28l14.872 18.384 20.592 8.92-11.624 19.848-1.712 23.68zm-40 64L288 156.488l-22.128 5.624-1.72-23.672-11.624-19.848 20.592-8.92L288 91.28l14.872 18.384 20.592 8.92-11.624 19.848-1.712 23.68zm80 0L368 156.488l-22.128 5.624-1.72-23.672-11.624-19.848 20.592-8.92L368 91.28l14.872 18.384 20.592 8.92-11.624 19.848-1.712 23.68zm40-64L408 92.488l-22.128 5.624-1.72-23.672-11.624-19.848 20.592-8.92L408 27.28l14.872 18.384 20.592 8.92-11.624 19.848-1.712 23.68z" fill="#f0bc5e"/><path d="M160 0v232h-26.584a5.425 5.425 0 0 1-5.248-6.768C138.528 209.96 144 192.16 144 173.68V144c0-13.232-10.768-24-24-24s-24 10.768-24 24c0 23.664-9.208 45.904-25.936 62.632L51.72 224.976C47.184 229.504 41.16 232 34.744 232H16v-16H0v152h16v-16h21.336c5.16 0 10.272 1.704 14.4 4.8L66.664 368c6.872 5.16 15.4 8 24 8H160v120h251.312L496 411.312V0H160zm48 248c4.416 0 8 3.592 8 8 0 4.416-3.584 8-8 8h-56c-4.416 0-8-3.584-8-8 0-4.408 3.584-8 8-8h56zm8 40c0 4.416-3.584 8-8 8h-56c-4.416 0-8-3.584-8-8s3.584-8 8-8h56c4.416 0 8 3.584 8 8zm-72 32c0-4.416 3.584-8 8-8h56c4.416 0 8 3.584 8 8s-3.584 8-8 8h-56c-4.416 0-8-3.584-8-8zm-67.736 35.2L61.336 344c-6.872-5.16-15.4-8-24-8H16v-88h18.744c10.688 0 20.736-4.16 28.288-11.712l18.344-18.344C101.128 198.192 112 171.936 112 144c0-4.408 3.584-8 8-8s8 3.592 8 8v29.68c0 15.576-4.704 30.568-13.6 43.352l-.864 1.608a21.172 21.172 0 0 0-1.536 7.944c0 10.504 7.608 19.216 17.592 21.032-.984 2.616-1.592 5.424-1.592 8.384 0 6.168 2.408 11.744 6.24 16-3.84 4.256-6.24 9.832-6.24 16s2.408 11.744 6.24 16c-3.84 4.256-6.24 9.832-6.24 16s2.408 11.744 6.24 16c-3.84 4.256-6.24 9.832-6.24 16 0 2.816.576 5.488 1.472 8H90.664a24.145 24.145 0 0 1-14.4-4.8zM152 360c-4.416 0-8-3.584-8-8s3.584-8 8-8h56c4.416 0 8 3.584 8 8s-3.584 8-8 8h-56zm24 16h32c13.232 0 24-10.768 24-24 0-6.168-2.408-11.744-6.24-16 3.84-4.256 6.24-9.832 6.24-16s-2.408-11.744-6.24-16c3.84-4.256 6.24-9.832 6.24-16s-2.408-11.744-6.24-16c3.84-4.256 6.24-9.832 6.24-16 0-13.232-10.768-24-24-24h-32V16h304v384h-80v80H176V376zm292.688 40L416 468.688V416h52.688z"/><path d="M346.344 178.344L324.688 200H248v80h80v-60.688l29.656-29.656-11.312-11.312zM312 264h-48v-48h44.688L288 236.688l-10.344-10.344-11.312 11.312L288 259.312l24-24V264zm-64 120h80v-80h-80v80zm16-64h48v48h-48v-48zm104-120h96v16h-96zm0 64h96v16h-96zm0-32h40v16h-40zm56 0h40v16h-40zm-56 72h96v16h-96zm0 64h96v16h-96zm0-32h40v16h-40zm56 0h40v16h-40z"/></svg>